<?xml version="1.0" encoding="UTF-8" standalone="no"?>
<!-- Created with Inkscape (http://www.inkscape.org/) -->

<svg
   width="53.862553mm"
   height="47.091507mm"
   viewBox="0 0 53.862553 47.091507"
   version="1.1"
   id="svg5"
   xml:space="preserve"
   inkscape:version="1.2.2 (b0a8486, 2022-12-01)"
   sodipodi:docname="logo.svg"
   inkscape:export-filename="../../GitHub/recipes/images/logo_alt.svg"
   inkscape:export-xdpi="37.414463"
   inkscape:export-ydpi="37.414463"
   xmlns:inkscape="http://www.inkscape.org/namespaces/inkscape"
   xmlns:sodipodi="http://sodipodi.sourceforge.net/DTD/sodipodi-0.dtd"
   xmlns="http://www.w3.org/2000/svg"
   xmlns:svg="http://www.w3.org/2000/svg"><sodipodi:namedview
     id="namedview7"
     pagecolor="#ffffff"
     bordercolor="#999999"
     borderopacity="1"
     inkscape:showpageshadow="0"
     inkscape:pageopacity="0"
     inkscape:pagecheckerboard="0"
     inkscape:deskcolor="#d1d1d1"
     inkscape:document-units="mm"
     showgrid="false"
     inkscape:zoom="1.5447391"
     inkscape:cx="434.05388"
     inkscape:cy="184.82085"
     inkscape:window-width="2048"
     inkscape:window-height="1017"
     inkscape:window-x="0"
     inkscape:window-y="25"
     inkscape:window-maximized="0"
     inkscape:current-layer="layer1" /><defs
     id="defs2" /><g
     inkscape:label="Layer 1"
     inkscape:groupmode="layer"
     id="layer1"><path
       style="fill:#241c1c;stroke-width:0.264583"
       d="m 33.053275,9.3267561 c 0,0.342562 -0.29974,5.1812299 -0.29974,5.1812299 l 11.86116,-0.128461 -0.17128,-5.9091699 z"
       id="path527" /><path
       style="fill:#916f6f;stroke-width:0.264583"
       d="m 28.064674,17.659317 c 0,0 0.79371,-1.23e-4 3.614641,0 2.113305,9.2e-5 9.528668,2.43735 9.528668,2.43735 v 3.08118 l -1.941981,3.199315 -13.745241,-5.331098 z"
       id="path745"
       sodipodi:nodetypes="csccccc" /><path
       d="m 26.491885,17.659317 h 1.57279 c 2.03266,3.52266 5.84045,5.88643 10.20009,5.88643 1.01173,0 2.00507,-0.12876 2.94322,-0.3679 v 0.3679 2.94322 17.65932 c 0,1.62796 -1.31525,2.94322 -2.94322,2.94322 -1.62797,0 -2.94322,-1.31526 -2.94322,-2.94322 v -12.95017 l -12.50868,10.00695 h 5.15064 c 1.62796,0 2.94321,1.31525 2.94321,2.94322 0,1.62796 -1.31525,2.94322 -2.94321,2.94322 h -13.24449 c -4.8747096,0 -8.8296557,-3.95496 -8.8296557,-8.82966 v -20.55655 c 0,-1.4808 -1.103708,-2.740869 -2.575319,-2.924821 l -0.726603,-0.09197 C 0.96866627,14.495355 -0.17183073,13.023747 0.02131627,11.404975 0.21446727,9.7862071 1.6952733,8.6457071 3.3048453,8.8480561 l 0.726604,0.09197 c 4.4148291,0.551854 7.7351457,4.3044579 7.7351457,8.7652709 v 7.84552 c 3.16396,-4.75514 8.57213,-7.8915 14.7161,-7.8915 z m 14.7161,2.43735 v 0 c -0.91976,0.32191 -1.91309,0.50587 -2.94322,0.50587 -2.61211,0 -4.96668,-1.1405 -6.58545,-2.94322 v 0 c -0.34031,-0.3771 -0.64383,-0.7818 -0.91056,-1.21408 -0.84618,-1.36124 -1.33365,-2.961615 -1.33365,-4.672361 v 0 -8.829659 -1.83951 -0.119569 c 0,-0.542655 0.43229,-0.97494 0.97494,-0.984138 h 0.0184 c 0.30352,0 0.58865,0.14716 0.7726,0.386297 v 0.0092 l 1.17729,1.563582 2.50173,3.338716 0.44148,0.588642 h 5.88644 l 0.44148,-0.588642 2.50174,-3.338716 1.17729,-1.563582 v -0.0092 C 45.512445,0.14716 45.797565,0 46.101085,0 h 0.0184 c 0.54266,0.0092 0.97495,0.441483 0.97495,0.984138 v 0.119569 1.83951 8.829659 c 0,1.591177 -0.42309,3.09038 -1.1589,4.378031 -1.03932,1.82112 -2.72247,3.23755 -4.72754,3.94576 z m -4.41483,-8.323791 c 0,-0.809388 -0.66223,-1.471612 -1.47161,-1.471612 -0.80938,0 -1.47161,0.662224 -1.47161,1.471612 0,0.809384 0.66223,1.471608 1.47161,1.471608 0.80938,0 1.47161,-0.662224 1.47161,-1.471608 z m 4.41483,1.471608 c 0.80938,0 1.47161,-0.662224 1.47161,-1.471608 0,-0.809388 -0.66223,-1.471612 -1.47161,-1.471612 -0.80939,0 -1.47161,0.662224 -1.47161,1.471612 0,0.809384 0.66222,1.471608 1.47161,1.471608 z"
       id="path141"
       style="fill:#ac9393;stroke-width:0.0919755" /><path
       style="fill:#502d16;stroke-width:0.264583"
       d="m 41.508225,18.271767 0.77076,5.09559 6.20891,1.37024 2.141,-3.29714 -0.12846,-5.78071 -2.22664,-2.055363 c 0,0 -2.48356,1.327423 -2.65485,1.498703 -0.17128,0.171281 -4.11072,3.16868 -4.11072,3.16868 z"
       id="path583" /><path
       d="m 38.682185,17.370357 c -0.17787,-0.0119 -0.34669,0.0886 -0.40958,0.25539 -0.25187,0.6839 -0.2799,1.4297 -0.0818,2.1343 l 0.74862,2.63515 c 0.1988,0.70141 0.6154,1.32306 1.1891,1.77493 l 2.15892,1.69446 c 0.5737,0.45187 1.27925,0.71178 2.00841,0.73954 l 2.743,0.11018 c 0.73234,0.0285 1.4511,-0.17327 2.06041,-0.57918 l 2.28118,-1.52043 c 0.6093,-0.40591 1.07032,-0.991 1.32219,-1.6749 l 0.94777,-2.56809 c 0.25187,-0.68391 0.2799,-1.4297 0.0818,-2.1343 l -0.74863,-2.635152 c -0.1988,-0.70141 -0.61539,-1.32306 -1.19229,-1.77562 l -2.15573,-1.69377 c -0.5737,-0.45188 -1.27925,-0.71178 -2.0084,-0.73954 -0.17539,-0.008 -0.33349,0.10479 -0.39571,0.26842 -0.61808,1.58695 -2.14542,2.63592 -3.83177,2.66126 -0.25503,0.005 -0.48305,0.16261 -0.57463,0.40006 -0.65549,1.682432 -2.33572,2.758402 -4.14355,2.650482 z m 5.41519,2.8282 c -0.12248,0.56492 -0.67784,0.92238 -1.24277,0.79989 -0.56491,-0.12248 -0.92237,-0.67784 -0.79988,-1.24276 0.12248,-0.56492 0.67784,-0.92237 1.24275,-0.79989 0.56493,0.12248 0.92238,0.67784 0.7999,1.24276 z m 4.08529,0.88574 c 0.56492,0.12248 0.92237,0.67784 0.79989,1.24276 -0.12248,0.56492 -0.67784,0.92237 -1.24276,0.79989 -0.56492,-0.12248 -0.92237,-0.67784 -0.79989,-1.24276 0.12249,-0.56492 0.67784,-0.92237 1.24276,-0.79989 z m 1.10717,-5.10662 c -0.12248,0.56492 -0.67784,0.92237 -1.24275,0.79989 -0.56493,-0.12248 -0.92238,-0.67784 -0.7999,-1.242762 0.12248,-0.56492 0.67784,-0.92236 1.24277,-0.79988 0.56491,0.12248 0.92237,0.67783 0.79988,1.242752 z"
       id="path150"
       style="fill:#d38d5f;stroke-width:0.0326579"
       inkscape:export-filename="../../GitHub/recipes/images/logo_no_text.svg"
       inkscape:export-xdpi="21.893602"
       inkscape:export-ydpi="21.893602" /></g></svg>
