<?xml version="1.0" encoding="UTF-8" standalone="no"?>
<!-- Created with Inkscape (http://www.inkscape.org/) -->

<svg
   width="178.24136mm"
   height="47.091507mm"
   viewBox="0 0 178.24136 47.091507"
   version="1.1"
   id="svg5"
   xml:space="preserve"
   inkscape:version="1.2.2 (b0a8486, 2022-12-01)"
   sodipodi:docname="logo_alt.svg"
   inkscape:export-filename="logo_alt.svg"
   inkscape:export-xdpi="21.893602"
   inkscape:export-ydpi="21.893602"
   xmlns:inkscape="http://www.inkscape.org/namespaces/inkscape"
   xmlns:sodipodi="http://sodipodi.sourceforge.net/DTD/sodipodi-0.dtd"
   xmlns="http://www.w3.org/2000/svg"
   xmlns:svg="http://www.w3.org/2000/svg"><sodipodi:namedview
     id="namedview7"
     pagecolor="#ffffff"
     bordercolor="#999999"
     borderopacity="1"
     inkscape:showpageshadow="0"
     inkscape:pageopacity="0"
     inkscape:pagecheckerboard="0"
     inkscape:deskcolor="#d1d1d1"
     inkscape:document-units="mm"
     showgrid="false"
     inkscape:zoom="0.77236955"
     inkscape:cx="337.27378"
     inkscape:cy="80.919814"
     inkscape:window-width="2048"
     inkscape:window-height="1017"
     inkscape:window-x="0"
     inkscape:window-y="25"
     inkscape:window-maximized="0"
     inkscape:current-layer="layer1" /><defs
     id="defs2" /><g
     inkscape:label="Layer 1"
     inkscape:groupmode="layer"
     id="layer1"><path
       style="fill:#241c1c;stroke-width:0.264583"
       d="m 33.053275,9.3267561 c 0,0.342562 -0.29974,5.1812299 -0.29974,5.1812299 l 11.86116,-0.128461 -0.17128,-5.9091699 z"
       id="path527" /><path
       style="fill:#916f6f;stroke-width:0.264583"
       d="m 28.064674,17.659317 c 0,0 0.79371,-1.23e-4 3.614641,0 2.113305,9.2e-5 9.528668,2.43735 9.528668,2.43735 v 3.08118 l -1.941981,3.199315 -13.745241,-5.331098 z"
       id="path745"
       sodipodi:nodetypes="csccccc" /><path
       d="m 26.491885,17.659317 h 1.57279 c 2.03266,3.52266 5.84045,5.88643 10.20009,5.88643 1.01173,0 2.00507,-0.12876 2.94322,-0.3679 v 0.3679 2.94322 17.65932 c 0,1.62796 -1.31525,2.94322 -2.94322,2.94322 -1.62797,0 -2.94322,-1.31526 -2.94322,-2.94322 v -12.95017 l -12.50868,10.00695 h 5.15064 c 1.62796,0 2.94321,1.31525 2.94321,2.94322 0,1.62796 -1.31525,2.94322 -2.94321,2.94322 h -13.24449 c -4.8747096,0 -8.8296557,-3.95496 -8.8296557,-8.82966 v -20.55655 c 0,-1.4808 -1.103708,-2.740869 -2.575319,-2.924821 l -0.726603,-0.09197 C 0.96866627,14.495355 -0.17183073,13.023747 0.02131627,11.404975 0.21446727,9.7862071 1.6952733,8.6457071 3.3048453,8.8480561 l 0.726604,0.09197 c 4.4148291,0.551854 7.7351457,4.3044579 7.7351457,8.7652709 v 7.84552 c 3.16396,-4.75514 8.57213,-7.8915 14.7161,-7.8915 z m 14.7161,2.43735 v 0 c -0.91976,0.32191 -1.91309,0.50587 -2.94322,0.50587 -2.61211,0 -4.96668,-1.1405 -6.58545,-2.94322 v 0 c -0.34031,-0.3771 -0.64383,-0.7818 -0.91056,-1.21408 -0.84618,-1.36124 -1.33365,-2.961615 -1.33365,-4.672361 v 0 -8.829659 -1.83951 -0.119569 c 0,-0.542655 0.43229,-0.97494 0.97494,-0.984138 h 0.0184 c 0.30352,0 0.58865,0.14716 0.7726,0.386297 v 0.0092 l 1.17729,1.563582 2.50173,3.338716 0.44148,0.588642 h 5.88644 l 0.44148,-0.588642 2.50174,-3.338716 1.17729,-1.563582 v -0.0092 C 45.512445,0.14716 45.797565,0 46.101085,0 h 0.0184 c 0.54266,0.0092 0.97495,0.441483 0.97495,0.984138 v 0.119569 1.83951 8.829659 c 0,1.591177 -0.42309,3.09038 -1.1589,4.378031 -1.03932,1.82112 -2.72247,3.23755 -4.72754,3.94576 z m -4.41483,-8.323791 c 0,-0.809388 -0.66223,-1.471612 -1.47161,-1.471612 -0.80938,0 -1.47161,0.662224 -1.47161,1.471612 0,0.809384 0.66223,1.471608 1.47161,1.471608 0.80938,0 1.47161,-0.662224 1.47161,-1.471608 z m 4.41483,1.471608 c 0.80938,0 1.47161,-0.662224 1.47161,-1.471608 0,-0.809388 -0.66223,-1.471612 -1.47161,-1.471612 -0.80939,0 -1.47161,0.662224 -1.47161,1.471612 0,0.809384 0.66222,1.471608 1.47161,1.471608 z"
       id="path141"
       style="fill:#ac9393;stroke-width:0.0919755" /><path
       style="fill:#502d16;stroke-width:0.264583"
       d="m 41.508225,18.271767 0.77076,5.09559 6.20891,1.37024 2.141,-3.29714 -0.12846,-5.78071 -2.22664,-2.055363 c 0,0 -2.48356,1.327423 -2.65485,1.498703 -0.17128,0.171281 -4.11072,3.16868 -4.11072,3.16868 z"
       id="path583" /><path
       d="m 38.682185,17.370357 c -0.17787,-0.0119 -0.34669,0.0886 -0.40958,0.25539 -0.25187,0.6839 -0.2799,1.4297 -0.0818,2.1343 l 0.74862,2.63515 c 0.1988,0.70141 0.6154,1.32306 1.1891,1.77493 l 2.15892,1.69446 c 0.5737,0.45187 1.27925,0.71178 2.00841,0.73954 l 2.743,0.11018 c 0.73234,0.0285 1.4511,-0.17327 2.06041,-0.57918 l 2.28118,-1.52043 c 0.6093,-0.40591 1.07032,-0.991 1.32219,-1.6749 l 0.94777,-2.56809 c 0.25187,-0.68391 0.2799,-1.4297 0.0818,-2.1343 l -0.74863,-2.635152 c -0.1988,-0.70141 -0.61539,-1.32306 -1.19229,-1.77562 l -2.15573,-1.69377 c -0.5737,-0.45188 -1.27925,-0.71178 -2.0084,-0.73954 -0.17539,-0.008 -0.33349,0.10479 -0.39571,0.26842 -0.61808,1.58695 -2.14542,2.63592 -3.83177,2.66126 -0.25503,0.005 -0.48305,0.16261 -0.57463,0.40006 -0.65549,1.682432 -2.33572,2.758402 -4.14355,2.650482 z m 5.41519,2.8282 c -0.12248,0.56492 -0.67784,0.92238 -1.24277,0.79989 -0.56491,-0.12248 -0.92237,-0.67784 -0.79988,-1.24276 0.12248,-0.56492 0.67784,-0.92237 1.24275,-0.79989 0.56493,0.12248 0.92238,0.67784 0.7999,1.24276 z m 4.08529,0.88574 c 0.56492,0.12248 0.92237,0.67784 0.79989,1.24276 -0.12248,0.56492 -0.67784,0.92237 -1.24276,0.79989 -0.56492,-0.12248 -0.92237,-0.67784 -0.79989,-1.24276 0.12249,-0.56492 0.67784,-0.92237 1.24276,-0.79989 z m 1.10717,-5.10662 c -0.12248,0.56492 -0.67784,0.92237 -1.24275,0.79989 -0.56493,-0.12248 -0.92238,-0.67784 -0.7999,-1.242762 0.12248,-0.56492 0.67784,-0.92236 1.24277,-0.79988 0.56491,0.12248 0.92237,0.67783 0.79988,1.242752 z"
       id="path150"
       style="fill:#d38d5f;stroke-width:0.0326579"
       inkscape:export-filename="logo_no_text.svg"
       inkscape:export-xdpi="21.893602"
       inkscape:export-ydpi="21.893602" /><g
       aria-label="Endercat's"
       id="text169"
       style="font-weight:800;font-size:26.2871px;font-family:Asap;-inkscape-font-specification:'Asap Ultra-Bold';fill:#f2f2f2;stroke-width:2.19058"><path
         d="m 62.262911,24.267685 q -1.261781,0 -1.261781,-1.051484 V 6.918199 q 0,-1.051484 1.261781,-1.051484 h 9.594792 q 0.946335,0 0.946335,1.4457905 v 1.1040582 q 0,1.4720776 -0.946335,1.4720776 h -6.361479 v 2.9441557 h 5.678014 q 0.920048,0 0.920048,1.472077 v 1.077771 q 0,1.472078 -0.920048,1.472078 h -5.678014 v 3.391036 h 6.387766 q 0.946335,0 0.946335,1.472077 v 1.104058 q 0,1.445791 -0.946335,1.445791 z"
         id="path246" /><path
         d="m 76.983675,24.320259 q -0.946336,0 -1.393217,-0.236584 -0.420593,-0.262871 -0.420593,-0.762326 v -8.227862 q 0,-1.235494 -0.07886,-1.892671 -0.05257,-0.657178 -0.131435,-0.99891 -0.05257,-0.341732 -0.05257,-0.63089 0,-0.315445 0.341732,-0.525742 0.341732,-0.210297 0.841187,-0.315445 0.525742,-0.105149 1.051484,-0.131436 0.525742,-0.05257 0.920049,-0.05257 0.499455,0 0.709751,0.157722 0.236584,0.131436 0.341733,0.525742 0.131435,0.36802 0.236584,1.077772 0.499455,-0.578317 1.130345,-1.025197 0.657177,-0.473168 1.419503,-0.709752 0.762326,-0.262871 1.603513,-0.262871 1.261781,0 2.102968,0.446881 0.841188,0.44688 1.261781,1.340642 0.446881,0.867474 0.446881,2.155542 v 9.069049 q 0,0.499455 -0.420594,0.762326 -0.420593,0.236584 -1.393216,0.236584 h -0.736039 q -0.946335,0 -1.393216,-0.236584 -0.420594,-0.262871 -0.420594,-0.762326 v -8.096426 q 0,-0.657178 -0.315445,-0.99891 -0.289158,-0.341732 -0.99891,-0.341732 -0.368019,0 -0.762326,0.157722 -0.394306,0.131436 -0.736038,0.394307 -0.341733,0.236583 -0.604604,0.578316 v 8.306723 q 0,0.499455 -0.44688,0.762326 -0.420594,0.236584 -1.36693,0.236584 z"
         id="path248" /><path
         d="m 94.306851,24.477982 q -1.472077,0 -2.602423,-0.8149 -1.130345,-0.8149 -1.761235,-2.392126 -0.630891,-1.577226 -0.630891,-3.890491 0,-2.208117 0.630891,-3.785343 0.657177,-1.577226 1.840097,-2.418413 1.182919,-0.867474 2.812719,-0.867474 0.972623,0 1.761236,0.289158 0.788613,0.289158 1.314355,0.683465 V 5.4461215 q 0,-0.4994549 0.420594,-0.7360388 0.44688,-0.262871 1.393216,-0.262871 h 0.73604 q 0.94633,0 1.36693,0.262871 0.44688,0.2365839 0.44688,0.7360388 V 19.69373 q 0,1.235493 0.0526,1.892671 0.0789,0.657177 0.13144,0.99891 0.0789,0.341732 0.0789,0.63089 0,0.341732 -0.34173,0.552029 -0.34173,0.210297 -0.86748,0.341732 -0.49945,0.105149 -1.02519,0.157723 -0.525746,0.02629 -0.920052,0.02629 -0.499455,0 -0.736039,-0.157723 -0.210297,-0.157722 -0.315445,-0.552029 -0.105149,-0.394306 -0.236584,-1.104058 -0.289158,0.552029 -0.788613,1.025197 -0.499455,0.446881 -1.18292,0.709752 -0.683464,0.262871 -1.577226,0.262871 z m 1.419504,-3.548759 q 0.604603,0 1.130345,-0.315445 0.525742,-0.315445 0.8149,-0.736039 v -5.494004 q -0.236584,-0.262871 -0.736039,-0.420593 -0.499455,-0.157723 -1.051484,-0.157723 -1.104058,0 -1.6298,0.867474 -0.499455,0.867475 -0.499455,2.733859 0,1.81381 0.473168,2.681284 0.473168,0.841187 1.498365,0.841187 z"
         id="path250" /><path
         d="m 111.10427,24.477982 q -3.54876,0 -5.25742,-1.840097 -1.68237,-1.866384 -1.68237,-5.204846 0,-2.392126 0.8149,-3.969352 0.8149,-1.577226 2.28698,-2.365839 1.49836,-0.788613 3.49618,-0.788613 2.07668,0 3.39104,0.841187 1.31435,0.8149 1.94524,2.286978 0.63089,1.472077 0.63089,3.469897 0,0.394306 -0.28916,0.841187 -0.26287,0.446881 -0.65717,0.762326 -0.39431,0.289158 -0.73604,0.289158 h -6.38777 q 0.0263,1.288068 0.84119,1.787523 0.8149,0.473168 1.91896,0.473168 0.92005,0 1.65609,-0.210297 0.76232,-0.210297 1.28806,-0.394307 0.55203,-0.184009 0.8149,-0.184009 0.34174,0 0.60461,0.44688 0.26287,0.446881 0.42059,1.025197 0.18401,0.552029 0.18401,0.867475 0,0.368019 -0.47317,0.709751 -0.44688,0.341733 -1.23549,0.604604 -0.76233,0.262871 -1.70866,0.394306 -0.92005,0.157723 -1.86639,0.157723 z m -2.47098,-8.411872 h 3.94306 q 0,-1.314355 -0.47317,-1.866384 -0.47316,-0.552029 -1.44579,-0.552029 -0.49945,0 -0.97262,0.184009 -0.44688,0.157723 -0.73604,0.683465 -0.28916,0.499455 -0.31544,1.550939 z"
         id="path252" /><path
         d="m 120.77791,24.320259 q -0.97262,0 -1.4195,-0.236584 -0.42059,-0.262871 -0.42059,-0.762326 v -8.227862 q 0,-1.235494 -0.0789,-1.892671 -0.0526,-0.657178 -0.13144,-0.99891 -0.0526,-0.341732 -0.0526,-0.63089 0,-0.315445 0.34173,-0.525742 0.34173,-0.210297 0.86747,-0.315445 0.52575,-0.105149 1.05149,-0.131436 0.52574,-0.05257 0.92005,-0.05257 0.47316,0 0.70975,0.157722 0.23658,0.157723 0.36802,0.604604 0.13143,0.44688 0.26287,1.314355 0.23658,-0.683465 0.68346,-1.18292 0.44688,-0.525742 0.97263,-0.8149 0.55202,-0.315445 1.02519,-0.315445 0.68347,0 0.92005,0.289158 0.26287,0.289158 0.26287,0.920049 0,0.236583 -0.0526,0.788613 -0.0526,0.552029 -0.18401,1.156632 -0.10515,0.604603 -0.31545,1.051484 -0.21029,0.420593 -0.55203,0.420593 -0.23658,0 -0.52574,-0.184009 -0.26287,-0.18401 -0.70975,-0.18401 -0.47317,0 -0.84119,0.262871 -0.36802,0.262871 -0.55203,0.657178 v 7.833555 q 0,0.499455 -0.44688,0.762326 -0.42059,0.236584 -1.36693,0.236584 z"
         id="path254" /><path
         d="m 134.28945,24.477982 q -3.41732,0 -5.15227,-1.761236 -1.70866,-1.761236 -1.70866,-5.283707 0,-3.522471 1.76124,-5.309994 1.76123,-1.81381 5.2837,-1.81381 0.73604,0 1.47208,0.131435 0.73604,0.131436 1.36693,0.36802 0.65718,0.210297 1.05148,0.499455 0.39431,0.289158 0.39431,0.63089 0,0.315445 -0.18401,0.920049 -0.15772,0.578316 -0.42059,1.051484 -0.26287,0.473167 -0.57832,0.473167 -0.26287,0 -0.68346,-0.131435 -0.39431,-0.157723 -0.97263,-0.289158 -0.57831,-0.157723 -1.36693,-0.157723 -1.44579,0 -2.07668,0.8149 -0.6046,0.8149 -0.6046,2.760146 0,1.866384 0.6046,2.733858 0.60461,0.867474 1.99782,0.867474 0.86748,0 1.52466,-0.184009 0.65717,-0.210297 1.13034,-0.394307 0.47317,-0.210297 0.73604,-0.210297 0.34173,0 0.57832,0.473168 0.23658,0.473168 0.36802,1.077771 0.13143,0.578317 0.13143,0.893762 0,0.394306 -0.44688,0.736039 -0.42059,0.315445 -1.13035,0.578316 -0.68346,0.236584 -1.49836,0.368019 -0.8149,0.157723 -1.57723,0.157723 z"
         id="path256" /><path
         d="m 144.12079,24.477982 q -2.0241,0 -2.99673,-1.130346 -0.94633,-1.156632 -0.94633,-2.944155 0,-0.762326 0.23658,-1.577226 0.26287,-0.841187 1.0252,-1.550939 0.78861,-0.736038 2.31326,-1.182919 1.55094,-0.446881 4.10079,-0.446881 v -0.63089 q 0,-0.473168 -0.18401,-0.762326 -0.15772,-0.289158 -0.6046,-0.420594 -0.4206,-0.157722 -1.20921,-0.157722 -0.99891,0 -1.81381,0.184009 -0.78861,0.18401 -1.36693,0.36802 -0.55203,0.184009 -0.84119,0.184009 -0.21029,0 -0.3943,-0.289158 -0.18401,-0.289158 -0.34173,-0.683464 -0.13144,-0.420594 -0.2103,-0.8149 -0.0526,-0.420594 -0.0526,-0.630891 0,-0.341732 0.49946,-0.63089 0.49945,-0.315445 1.28807,-0.552029 0.8149,-0.236584 1.73495,-0.36802 0.94633,-0.131435 1.78752,-0.131435 1.76123,0 2.91787,0.341732 1.18292,0.341733 1.86638,0.946336 0.68347,0.604603 0.97262,1.44579 0.28916,0.841188 0.28916,1.81381 v 4.784252 q 0,1.261781 0.0789,1.99782 0.0789,0.709752 0.15773,1.104058 0.0789,0.394307 0.0789,0.683465 0,0.289158 -0.36802,0.44688 -0.36802,0.157723 -0.92005,0.262871 -0.52574,0.105149 -1.10406,0.131436 -0.55203,0.02629 -0.94633,0.02629 -0.36802,0 -0.55203,-0.236584 -0.18401,-0.236584 -0.26287,-0.604603 -0.0789,-0.36802 -0.18401,-0.709752 -0.15773,0.210297 -0.68347,0.657178 -0.49945,0.420593 -1.34064,0.762326 -0.84119,0.315445 -2.02411,0.315445 z m 1.60352,-3.364749 q 0.3943,0 0.76232,-0.131436 0.39431,-0.131435 0.73604,-0.368019 0.36802,-0.236584 0.63089,-0.552029 v -1.682374 q -0.94634,0 -1.60351,0.105148 -0.63089,0.105148 -1.05149,0.315445 -0.42059,0.18401 -0.6046,0.499455 -0.18401,0.289158 -0.18401,0.709752 0,0.499455 0.31545,0.8149 0.31544,0.289158 0.99891,0.289158 z"
         id="path258" /><path
         d="m 159.52499,24.477982 q -1.26178,0 -2.15555,-0.473168 -0.89376,-0.499455 -1.36692,-1.419503 -0.47317,-0.920049 -0.47317,-2.260691 v -6.151181 h -0.65718 q -0.94634,0 -0.94634,-1.472078 v -0.736039 q 0,-1.44579 0.94634,-1.44579 h 0.65718 l 0.52574,-2.3921264 q 0.10515,-0.4994549 0.44688,-0.7097517 0.36802,-0.2365839 1.10406,-0.2365839 h 0.70975 q 0.84119,0 1.20921,0.262871 0.3943,0.2365839 0.3943,0.7097517 v 2.3658393 h 1.31436 q 0.94633,0 0.94633,1.44579 v 0.736039 q 0,1.472078 -0.94633,1.472078 h -1.31436 v 5.756874 q 0,0.525742 0.15773,0.762326 0.18401,0.236584 0.6046,0.236584 0.39431,0 0.63089,-0.105148 0.23658,-0.131436 0.39431,-0.131436 0.18401,0 0.34173,0.315446 0.15772,0.289158 0.26287,0.736038 0.10515,0.420594 0.15772,0.788613 0.0789,0.36802 0.0789,0.499455 0,0.36802 -0.44688,0.709752 -0.44688,0.341732 -1.13034,0.525742 -0.68347,0.210297 -1.44579,0.210297 z"
         id="path260" /><path
         d="m 165.12412,12.070471 q -0.60461,0 -0.86748,-0.157723 -0.26287,-0.157723 -0.31544,-0.63089 l -0.57832,-4.4425203 q -0.0526,-0.5520291 0.36802,-0.788613 0.42059,-0.2365838 1.23549,-0.2365838 h 0.47317 q 0.84119,0 1.2355,0.2365838 0.42059,0.2365839 0.36802,0.788613 l -0.57832,4.4425203 q -0.0526,0.473167 -0.31545,0.63089 -0.26287,0.157723 -0.86747,0.157723 z"
         id="path262" /><path
         d="m 172.98394,24.477982 q -0.78861,0 -1.6298,-0.105149 -0.8149,-0.105148 -1.52465,-0.341732 -0.70975,-0.236584 -1.15663,-0.552029 -0.4206,-0.315445 -0.4206,-0.736039 0,-0.525742 0.23659,-1.051484 0.23658,-0.525742 0.55203,-0.867474 0.31544,-0.341732 0.57831,-0.341732 0.23659,0 0.63089,0.184009 0.39431,0.157723 0.97262,0.341733 0.57832,0.184009 1.31436,0.184009 0.70975,0 1.0252,-0.210297 0.34173,-0.236583 0.34173,-0.657177 0,-0.394307 -0.28916,-0.63089 -0.26287,-0.262871 -0.70975,-0.473168 -0.44688,-0.210297 -1.0252,-0.446881 -0.52574,-0.262871 -1.13034,-0.578316 -0.60461,-0.341732 -1.10406,-0.788613 -0.49946,-0.473168 -0.8149,-1.156633 -0.31545,-0.683464 -0.31545,-1.682374 0,-1.340642 0.60461,-2.286978 0.63089,-0.972622 1.76123,-1.472077 1.13035,-0.499455 2.60243,-0.499455 0.63089,0 1.36692,0.07886 0.73604,0.07886 1.41951,0.262871 0.70975,0.18401 1.13034,0.473168 0.44688,0.289158 0.44688,0.709752 0,0.44688 -0.18401,0.99891 -0.15772,0.525742 -0.42059,0.893761 -0.23658,0.341732 -0.49945,0.341732 -0.34174,0 -0.99891,-0.236584 -0.63089,-0.262871 -1.6298,-0.262871 -0.63089,0 -0.97263,0.18401 -0.34173,0.18401 -0.34173,0.63089 0,0.36802 0.28916,0.604604 0.31544,0.236584 0.84119,0.473167 0.52574,0.210297 1.2092,0.525742 0.47317,0.236584 1.0252,0.55203 0.55203,0.289158 1.0252,0.736038 0.47316,0.446881 0.76232,1.130346 0.28916,0.657177 0.28916,1.603513 0,1.314355 -0.63089,2.313265 -0.6046,0.998909 -1.78752,1.577226 -1.15664,0.578316 -2.83901,0.578316 z"
         id="path264" /></g><g
       aria-label="Recipes"
       id="text223"
       style="font-style:italic;font-weight:600;font-size:20.3844px;font-family:Asap;-inkscape-font-specification:'Asap Semi-Bold Italic';fill:#b3b3b3;stroke-width:1.6987"><path
         d="m 65.593371,41.108346 q -0.448457,0 -0.672685,-0.122306 -0.203844,-0.142691 -0.18346,-0.407688 l 1.345371,-13.107169 q 0.04077,-0.366919 0.183459,-0.50961 0.142691,-0.163075 0.489226,-0.163075 h 4.138033 q 2.140362,0 3.24112,0.896913 1.100757,0.87653 1.100757,2.649972 0,0.998836 -0.346535,1.793827 -0.346535,0.794992 -0.978451,1.345371 -0.611532,0.529994 -1.467677,0.774607 v 0.08154 q 0.36692,0.122306 0.69307,0.591147 0.346535,0.448457 0.611532,1.365755 l 1.182295,4.036111 q 0.04077,0.122306 0.06115,0.224228 0.02039,0.08154 0.02039,0.122307 0,0.224228 -0.224229,0.32615 -0.203844,0.101922 -0.774607,0.101922 h -0.387303 q -0.346535,0 -0.591148,-0.08154 -0.244613,-0.08154 -0.305766,-0.326151 l -1.223064,-4.178802 q -0.142691,-0.550378 -0.407688,-0.876529 -0.244613,-0.346535 -0.672685,-0.489225 -0.428073,-0.142691 -1.121142,-0.142691 h -1.793827 l -0.570763,5.585325 q -0.02039,0.244613 -0.264998,0.387304 -0.224228,0.122306 -0.754222,0.122306 z m 2.119978,-7.909147 h 2.507281 q 1.467677,0 2.099593,-0.631916 0.631916,-0.652301 0.631916,-2.03844 0,-0.978451 -0.550378,-1.406524 -0.529995,-0.448456 -1.71229,-0.448456 H 68.18219 Z"
         style="font-weight:500;-inkscape-font-specification:'Asap Medium Italic'"
         id="path267" /><path
         d="m 81.370869,41.210268 q -2.221899,0 -3.38381,-1.080373 -1.141526,-1.080373 -1.141526,-3.159582 0,-1.426908 0.32615,-2.649972 0.346535,-1.223064 1.01922,-2.119977 0.672685,-0.917298 1.71229,-1.426908 1.059988,-0.50961 2.466512,-0.50961 1.080373,0 1.793827,0.285381 0.713454,0.285382 1.121142,0.733839 0.428073,0.428072 0.591148,0.917298 0.163075,0.468841 0.163075,0.856144 0,1.039605 -0.448457,1.773443 -0.428072,0.713454 -1.182295,1.141527 -0.754223,0.428072 -1.671521,0.631916 -0.917298,0.183459 -1.875365,0.183459 -0.794991,0 -1.365754,-0.06115 -0.550379,-0.08154 -0.937683,-0.183459 l 0.468842,-0.794992 q -0.04077,0.224229 -0.06115,0.50961 0,0.264997 0,0.631916 0,1.324986 0.652301,1.956903 0.672685,0.631916 2.079209,0.631916 0.83576,0 1.447292,-0.244613 0.631917,-0.244612 1.01922,-0.468841 0.407688,-0.244613 0.529995,-0.244613 0.163075,0 0.264997,0.224229 0.101922,0.203844 0.142691,0.468841 0.06115,0.264997 0.06115,0.448457 0,0.32615 -0.50961,0.693069 -0.50961,0.346535 -1.365755,0.611532 -0.856145,0.244613 -1.916134,0.244613 z m -0.937682,-6.033782 q 0.285382,0 0.713454,-0.04077 0.448457,-0.04077 0.917298,-0.142691 0.489226,-0.101922 0.896914,-0.305766 0.428072,-0.224228 0.693069,-0.550378 0.285382,-0.346535 0.285382,-0.856145 0,-0.591148 -0.468841,-0.937683 -0.448457,-0.346534 -1.20268,-0.346534 -0.856145,0 -1.508445,0.366919 -0.652301,0.366919 -1.080374,1.080373 -0.428072,0.69307 -0.570763,1.671521 0.326151,0.02038 0.652301,0.04077 0.346535,0.02038 0.672685,0.02038 z"
         style="font-weight:500;-inkscape-font-specification:'Asap Medium Italic'"
         id="path269" /><path
         d="m 92.031897,41.210268 q -2.2219,0 -3.322657,-1.039604 -1.080373,-1.059989 -1.080373,-3.179967 0,-1.630751 0.366919,-2.8742 0.366919,-1.263833 1.059989,-2.099593 0.713454,-0.856145 1.753058,-1.304602 1.059989,-0.448456 2.405359,-0.448456 0.550379,0 1.080373,0.101922 0.529995,0.101922 0.958067,0.264997 0.448457,0.142691 0.713454,0.346535 0.264997,0.183459 0.264997,0.346534 0,0.101922 -0.08154,0.305766 -0.06115,0.203844 -0.163076,0.428073 -0.101922,0.224228 -0.224228,0.387303 -0.122306,0.142691 -0.244613,0.142691 -0.142691,0 -0.468841,-0.142691 -0.32615,-0.163075 -0.83576,-0.305766 -0.50961,-0.14269 -1.263833,-0.14269 -0.631917,0 -1.141527,0.203844 -0.489225,0.183459 -0.876529,0.570763 -0.366919,0.387303 -0.631916,0.978451 -0.244613,0.570763 -0.366919,1.365755 -0.122307,0.774607 -0.122307,1.732674 0,1.365754 0.591148,1.997671 0.591147,0.631916 1.875365,0.631916 0.733838,0 1.304601,-0.183459 0.591148,-0.203844 0.958067,-0.387304 0.366919,-0.18346 0.489226,-0.18346 0.163075,0 0.244612,0.224229 0.101922,0.203844 0.163076,0.468841 0.06115,0.264997 0.06115,0.448457 0,0.285381 -0.489226,0.591147 -0.468841,0.305766 -1.263833,0.529995 -0.774607,0.224228 -1.712289,0.224228 z"
         style="font-weight:500;-inkscape-font-specification:'Asap Medium Italic'"
         id="path271" /><path
         d="m 99.737174,41.210268 q -0.570763,0 -1.039604,-0.244613 -0.448457,-0.244612 -0.672686,-0.794991 -0.224228,-0.550379 -0.122306,-1.508446 l 0.774607,-7.78684 q 0.04077,-0.264998 0.285382,-0.387304 0.244613,-0.122306 0.693069,-0.122306 h 0.224229 q 0.468845,0 0.693065,0.14269 0.22423,0.122307 0.18346,0.36692 l -0.774603,7.766456 q -0.04077,0.468841 0.08153,0.672685 0.12231,0.18346 0.44846,0.18346 0.265,0 0.44846,-0.06115 0.18346,-0.08154 0.24461,-0.08154 0.0612,0 0.10192,0.04077 0.0408,0.04077 0.0408,0.14269 0,0.02038 0,0.142691 0,0.101922 -0.0204,0.285382 -0.0204,0.183459 -0.0815,0.448457 -0.0408,0.285381 -0.30577,0.468841 -0.24461,0.163075 -0.57076,0.244613 -0.32615,0.08154 -0.631916,0.08154 z m 0.163075,-12.149102 q -0.591147,0 -0.83576,-0.122306 -0.224229,-0.142691 -0.203844,-0.387304 l 0.142691,-1.324986 q 0.02038,-0.244613 0.285381,-0.366919 0.264997,-0.142691 0.856143,-0.142691 0.57077,0 0.79499,0.142691 0.24462,0.122306 0.20385,0.366919 l -0.12231,1.324986 q -0.0204,0.244613 -0.30576,0.387304 -0.265,0.122306 -0.815381,0.122306 z"
         style="font-weight:500;-inkscape-font-specification:'Asap Medium Italic'"
         id="path273" /><path
         d="m 103.36558,45.287148 q -0.48922,0 -0.69307,-0.142691 -0.20384,-0.142691 -0.18346,-0.346535 l 1.16191,-11.191035 q 0.0408,-0.366919 0.0612,-0.693069 0.0408,-0.346535 0.0408,-0.652301 0.0204,-0.305766 0.0204,-0.570763 0,-0.264998 -0.0204,-0.448457 0,-0.18346 0,-0.346535 0,-0.142691 0.16307,-0.224228 0.16308,-0.08154 0.38731,-0.142691 0.24461,-0.06115 0.46884,-0.08154 0.24461,-0.02038 0.40768,-0.02038 0.34654,0 0.44846,0.285381 0.12231,0.264998 0.12231,0.652301 0,0.468841 -0.0815,0.998836 -0.0611,0.50961 -0.16308,0.896913 l -0.0815,-0.407688 q 0.3873,-0.876529 0.93768,-1.426908 0.57076,-0.570763 1.24345,-0.856144 0.67268,-0.305766 1.42691,-0.305766 0.61153,0 1.24344,0.224228 0.63192,0.224228 1.16192,0.733838 0.55037,0.489226 0.87652,1.324986 0.32615,0.815376 0.32615,2.058825 0,1.467677 -0.34653,2.69074 -0.34653,1.20268 -0.99884,2.079209 -0.6523,0.876529 -1.56959,1.365755 -0.9173,0.468841 -2.03844,0.468841 -0.61154,0 -1.12115,-0.163075 -0.50961,-0.163075 -0.89691,-0.387304 -0.3873,-0.244612 -0.63192,-0.468841 l -0.46884,4.606874 q -0.0408,0.489226 -0.97845,0.489226 z m 4.0565,-5.809554 q 0.87653,0 1.46768,-0.387303 0.59114,-0.387304 0.93768,-1.039605 0.36692,-0.672685 0.50961,-1.508445 0.16307,-0.856145 0.16307,-1.793827 0,-1.01922 -0.28538,-1.610368 -0.265,-0.611532 -0.73384,-0.856145 -0.46884,-0.264997 -1.0396,-0.264997 -0.59115,0 -1.10076,0.305766 -0.50961,0.285382 -0.93768,0.83576 -0.42807,0.529995 -0.77461,1.284218 l -0.30576,3.057659 q -0.0204,0.224229 -0.0815,0.550379 -0.0408,0.326151 -0.10192,0.611532 0.26499,0.224229 0.83576,0.529995 0.59114,0.285381 1.44729,0.285381 z"
         style="font-weight:500;-inkscape-font-specification:'Asap Medium Italic'"
         id="path275" /><path
         d="m 119.12272,41.210268 q -2.2219,0 -3.38381,-1.080373 -1.14152,-1.080373 -1.14152,-3.159582 0,-1.426908 0.32615,-2.649972 0.34653,-1.223064 1.01922,-2.119977 0.67268,-0.917298 1.71229,-1.426908 1.05998,-0.50961 2.46651,-0.50961 1.08037,0 1.79383,0.285381 0.71345,0.285382 1.12114,0.733839 0.42807,0.428072 0.59114,0.917298 0.16308,0.468841 0.16308,0.856144 0,1.039605 -0.44846,1.773443 -0.42807,0.713454 -1.18229,1.141527 -0.75422,0.428072 -1.67152,0.631916 -0.9173,0.183459 -1.87537,0.183459 -0.79499,0 -1.36575,-0.06115 -0.55038,-0.08154 -0.93768,-0.183459 l 0.46884,-0.794992 q -0.0408,0.224229 -0.0612,0.50961 0,0.264997 0,0.631916 0,1.324986 0.6523,1.956903 0.67269,0.631916 2.07921,0.631916 0.83576,0 1.4473,-0.244613 0.63191,-0.244612 1.01922,-0.468841 0.40768,-0.244613 0.52999,-0.244613 0.16307,0 0.265,0.224229 0.10192,0.203844 0.14269,0.468841 0.0611,0.264997 0.0611,0.448457 0,0.32615 -0.50961,0.693069 -0.50961,0.346535 -1.36575,0.611532 -0.85615,0.244613 -1.91614,0.244613 z m -0.93768,-6.033782 q 0.28538,0 0.71345,-0.04077 0.44846,-0.04077 0.9173,-0.142691 0.48923,-0.101922 0.89692,-0.305766 0.42807,-0.224228 0.69307,-0.550378 0.28538,-0.346535 0.28538,-0.856145 0,-0.591148 -0.46884,-0.937683 -0.44846,-0.346534 -1.20268,-0.346534 -0.85615,0 -1.50845,0.366919 -0.6523,0.366919 -1.08037,1.080373 -0.42808,0.69307 -0.57077,1.671521 0.32615,0.02038 0.6523,0.04077 0.34654,0.02038 0.67269,0.02038 z"
         style="font-weight:500;-inkscape-font-specification:'Asap Medium Italic'"
         id="path277" /><path
         d="m 128.0307,41.210268 q -0.53,0 -1.05999,-0.101922 -0.50961,-0.101922 -0.9173,-0.264997 -0.40769,-0.18346 -0.6523,-0.407688 -0.24461,-0.244613 -0.24461,-0.50961 0,-0.32615 0.0408,-0.570763 0.0612,-0.264997 0.1427,-0.407688 0.0815,-0.163075 0.18346,-0.163075 0.14269,0 0.42807,0.183459 0.30576,0.163075 0.7746,0.346535 0.48923,0.163075 1.16192,0.163075 0.85614,0 1.40652,-0.366919 0.55038,-0.387304 0.55038,-1.059989 0,-0.50961 -0.265,-0.794991 -0.24461,-0.285382 -0.6523,-0.489226 -0.40769,-0.203844 -0.87653,-0.366919 -0.44846,-0.203844 -0.89691,-0.428072 -0.42808,-0.244613 -0.77461,-0.591148 -0.32615,-0.346535 -0.52999,-0.794992 -0.20385,-0.468841 -0.20385,-1.100757 0,-1.039605 0.50961,-1.753059 0.50961,-0.713454 1.36576,-1.080373 0.85614,-0.387303 1.89575,-0.387303 0.3873,0 0.85614,0.06115 0.46884,0.06115 0.87653,0.183459 0.42807,0.122307 0.69307,0.326151 0.265,0.183459 0.265,0.468841 0,0.18346 -0.14269,0.448457 -0.1427,0.264997 -0.34654,0.489225 -0.18346,0.224229 -0.32615,0.224229 -0.16307,0 -0.57076,-0.224229 -0.38731,-0.244612 -1.22307,-0.244612 -0.81537,0 -1.3046,0.32615 -0.46884,0.305766 -0.46884,0.876529 0,0.468841 0.28538,0.774607 0.28538,0.305766 0.73384,0.50961 0.44846,0.18346 0.9173,0.387304 0.42807,0.18346 0.83576,0.407688 0.40769,0.224228 0.73384,0.550379 0.34653,0.32615 0.55038,0.794991 0.20384,0.448457 0.20384,1.100758 0,1.01922 -0.50961,1.814211 -0.48923,0.774608 -1.36575,1.223064 -0.87653,0.448457 -2.07921,0.448457 z"
         style="font-weight:500;-inkscape-font-specification:'Asap Medium Italic'"
         id="path279" /></g></g></svg>
